999
dxflib 2.0.4.8
  0
SECTION
  2
HEADER
  9
$ACADVER
  1
AC1015
  9
$HANDSEED
  5
FFFF
  9
$USERR4
 40
0.0
  9
$DIMTAD
 70
1
  9
$VISRETAIN
 70
1
  9
$TILEMODE
 70
1
  9
$SHADEDIF
 70
70
  9
$USERR5
 40
0.0
  9
$UCSYDIR
 10
0.0
 20
1.0
 30
0.0
  9
$ATTREQ
 70
1
  9
$CHAMFERA
 40
10.0
  9
$MENU
  1
.
  9
$CLAYER
  8
0
  9
$UCSXDIR
 10
1.0
 20
0.0
 30
0.0
  9
$CHAMFERB
 40
10.0
  9
$DIMASZ
 40
6.0
  9
$TRACEWID
 40
1.0
  9
$REGENMODE
 70
1
  9
$ORTHOMODE
 70
0
  9
$EXTMIN
 10
0.0
 20
0.0
 30
0.0
  9
$PUCSYDIR
 10
0.0
 20
1.0
 30
0.0
  9
$ANGBASE
 50
0.0
  9
$USRTIMER
 70
1
  9
$SKETCHINC
 40
1.0
  9
$DIMGAP
 40
1.524
  9
$DIMTFAC
 40
1.0
  9
$DIMSAH
 70
0
  9
$DIMALT
 70
0
  9
$DIMSHO
 70
1
  9
$PUCSXDIR
 10
1.0
 20
0.0
 30
0.0
  9
$SURFTYPE
 70
6
  9
$SPLFRAME
 70
0
  9
$DIMTSZ
 40
0.0
  9
$LIMMIN
 10
0.0
 20
0.0
  9
$SURFTAB1
 70
6
  9
$SPLINESEGS
 70
8
  9
$AUPREC
 70
0
  9
$LUNITS
 70
2
  9
$DWGCODEPAGE
  3
ansi_1252
  9
$UNITMODE
 70
0
  9
$USERI1
 70
0
  9
$SURFTAB2
 70
6
  9
$SKPOLY
 70
0
  9
$ELEVATION
 40
0.0
  9
$DIMCEN
 40
2.5
  9
$DIMRND
 40
0.0
  9
$INSBASE
 10
0.0
 20
0.0
 30
0.0
  9
$USERI2
 70
0
  9
$UCSORG
 10
0.0
 20
0.0
 30
0.0
  9
$PELEVATION
 40
0.0
  9
$DIMEXO
 40
1.0
  9
$TEXTSIZE
 40
3.5
  9
$DRAGMODE
 70
2
  9
$FILLMODE
 70
1
  9
$EXTMAX
 10
297.0
 20
210.0
 30
0.0
  9
$INSUNITS
 70
4
  9
$USERI3
 70
0
  9
$SURFU
 70
6
  9
$ANGDIR
 70
0
  9
$TDUSRTIMER
 40
0.0000000116
  9
$DIMZIN
 70
0
  9
$DIMDLE
 40
0.0
  9
$DIMSCALE
 40
1.0
  9
$WORLDVIEW
 70
1
  9
$USERI4
 70
0
  9
$SURFV
 70
6
  9
$OSMODE
 70
37
  9
$QTEXTMODE
 70
0
  9
$LIMMAX
 10
420.0
 20
297.0
  9
$USERI5
 70
0
  9
$HANDLING
 70
1
  9
$PDMODE
 70
0
  9
$LIMCHECK
 70
0
  9
$THICKNESS
 40
0.0
  9
$DIMSE1
 70
0
  9
$DIMLIM
 70
0
  9
$DIMTXT
 40
3.5
  9
$ATTMODE
 70
1
  9
$PEXTMAX
 10
-100000000000000000000.0
 20
-100000000000000000000.0
 30
-100000000000000000000.0
  9
$PEXTMIN
 10
100000000000000000000.0
 20
100000000000000000000.0
 30
100000000000000000000.0
  9
$PUCSORG
 10
0.0
 20
0.0
 30
0.0
  9
$SPLINETYPE
 70
6
  9
$TDINDWG
 40
0.0000000116
  9
$LUPREC
 70
2
  9
$DIMSOXD
 70
0
  9
$DIMLFAC
 40
1.0
  9
$DIMSE2
 70
0
  9
$DIMTOH
 70
1
  9
$CELTYPE
  6
BYLAYER
  9
$PLIMCHECK
 70
0
  9
$PLINEWID
 40
0.0
  9
$DIMSTYLE
  2
ISO-25
  9
$DIMTVP
 40
0.0
  9
$DIMASO
 70
1
  9
$DIMTM
 40
0.0
  9
$DIMDLI
 40
3.75
  9
$CECOLOR
 62
256
  9
$PLIMMAX
 10
420.0
 20
297.0
  9
$PLIMMIN
 10
0.0
 20
0.0
  9
$MAXACTVP
 70
64
  9
$TDUPDATE
 40
2455379.88845118
  9
$FILLETRAD
 40
10.0
  9
$DIMCLRT
 70
0
  9
$DIMALTD
 70
3
  9
$DIMTIH
 70
1
  9
$LTSCALE
 40
1.0
  9
$USERR1
 40
0.0
  9
$ATTDIA
 70
0
  9
$PDSIZE
 40
-1.0
  9
$DIMCLRD
 70
0
  9
$DIMEXE
 40
1.0
  9
$PSLTSCALE
 70
1
  9
$PLINEGEN
 70
0
  9
$SHADEDGE
 70
3
  9
$USERR2
 40
0.0
  9
$COORDS
 70
1
  9
$TDCREATE
 40
2455379.8884511688
  9
$DIMCLRE
 70
0
  9
$DIMTOFL
 70
1
  9
$DIMALTF
 40
0.0394
  9
$DIMTOL
 70
0
  9
$DIMTP
 40
0.0
  9
$TEXTSTYLE
  7
STANDARD
  9
$USERR3
 40
0.0
  9
$AUNITS
 70
0
  9
$DIMTIX
 70
0
  9
$MIRRTEXT
 70
1
  0
ENDSEC
  0
SECTION
  2
TABLES
  0
TABLE
  2
VPORT
  5
8
100
AcDbSymbolTable
 70
1
  0
VPORT
  5
30
100
AcDbSymbolTableRecord
100
AcDbViewportTableRecord
  2
*Active
 70
0
 10
0.0
 20
0.0
 11
1.0
 21
1.0
 12
286.30555555555549
 22
148.5
 13
0.0
 23
0.0
 14
10.0
 24
10.0
 15
10.0
 25
10.0
 16
0.0
 26
0.0
 36
1.0
 17
0.0
 27
0.0
 37
0.0
 40
297.0
 41
1.92798353909465
 42
50.0
 43
0.0
 44
0.0
 50
0.0
 51
0.0
 71
0
 72
100
 73
1
 74
3
 75
1
 76
1
 77
0
 78
0
281
0
 65
1
110
0.0
120
0.0
130
0.0
111
1.0
121
0.0
131
0.0
112
0.0
122
1.0
132
0.0
 79
0
146
0.0
  0
ENDTAB
  0
TABLE
  2
LTYPE
  5
5
100
AcDbSymbolTable
 70
21
  0
LTYPE
  5
14
100
AcDbSymbolTableRecord
100
AcDbLinetypeTableRecord
  2
ByBlock
 70
0
  3

 72
65
 73
0
 40
0.0
  0
LTYPE
  5
15
100
AcDbSymbolTableRecord
100
AcDbLinetypeTableRecord
  2
ByLayer
 70
0
  3

 72
65
 73
0
 40
0.0
  0
LTYPE
  5
16
100
AcDbSymbolTableRecord
100
AcDbLinetypeTableRecord
  2
CONTINUOUS
 70
0
  3
Solid line
 72
65
 73
0
 40
0.0
  0
LTYPE
  5
31
100
AcDbSymbolTableRecord
100
AcDbLinetypeTableRecord
  2
DOT
 70
0
  3
Dot . . . . . . . . . . . . . . . . . . . . . .
 72
65
 73
2
 40
6.3499999999999996
 49
0.0
 74
0
 49
-6.3499999999999996
 74
0
  0
LTYPE
  5
32
100
AcDbSymbolTableRecord
100
AcDbLinetypeTableRecord
  2
DOT2
 70
0
  3
Dot (.5x) .....................................
 72
65
 73
2
 40
3.1749999999999998
 49
0.0
 74
0
 49
-3.1749999999999998
 74
0
  0
LTYPE
  5
33
100
AcDbSymbolTableRecord
100
AcDbLinetypeTableRecord
  2
DOTX2
 70
0
  3
Dot (2x) .  .  .  .  .  .  .  .  .  .  .  .  .
 72
65
 73
2
 40
12.699999999999999
 49
0.0
 74
0
 49
-12.699999999999999
 74
0
  0
LTYPE
  5
34
100
AcDbSymbolTableRecord
100
AcDbLinetypeTableRecord
  2
DASHED
 70
0
  3
Dashed __ __ __ __ __ __ __ __ __ __ __ __ __ _
 72
65
 73
2
 40
19.050000000000001
 49
12.699999999999999
 74
0
 49
-6.3499999999999996
 74
0
  0
LTYPE
  5
35
100
AcDbSymbolTableRecord
100
AcDbLinetypeTableRecord
  2
DASHED2
 70
0
  3
Dashed (.5x) _ _ _ _ _ _ _ _ _ _ _ _ _ _ _ _ _
 72
65
 73
2
 40
9.5250000000000004
 49
6.3499999999999996
 74
0
 49
-3.1749999999999998
 74
0
  0
LTYPE
  5
36
100
AcDbSymbolTableRecord
100
AcDbLinetypeTableRecord
  2
DASHEDX2
 70
0
  3
Dashed (2x) ____  ____  ____  ____  ____  ___
 72
65
 73
2
 40
38.100000000000001
 49
25.399999999999999
 74
0
 49
-12.699999999999999
 74
0
  0
LTYPE
  5
37
100
AcDbSymbolTableRecord
100
AcDbLinetypeTableRecord
  2
DASHDOT
 70
0
  3
Dash dot __ . __ . __ . __ . __ . __ . __ . __
 72
65
 73
4
 40
25.399999999999999
 49
12.699999999999999
 74
0
 49
-6.3499999999999996
 74
0
 49
0.0
 74
0
 49
-6.3499999999999996
 74
0
  0
LTYPE
  5
38
100
AcDbSymbolTableRecord
100
AcDbLinetypeTableRecord
  2
DASHDOT2
 70
0
  3
Dash dot (.5x) _._._._._._._._._._._._._._._.
 72
65
 73
4
 40
12.699999999999999
 49
6.3499999999999996
 74
0
 49
-3.1749999999999998
 74
0
 49
0.0
 74
0
 49
-3.1749999999999998
 74
0
  0
LTYPE
  5
39
100
AcDbSymbolTableRecord
100
AcDbLinetypeTableRecord
  2
DASHDOTX2
 70
0
  3
Dash dot (2x) ____  .  ____  .  ____  .  ___
 72
65
 73
4
 40
50.799999999999997
 49
25.399999999999999
 74
0
 49
-12.699999999999999
 74
0
 49
0.0
 74
0
 49
-12.699999999999999
 74
0
  0
LTYPE
  5
3A
100
AcDbSymbolTableRecord
100
AcDbLinetypeTableRecord
  2
DIVIDE
 70
0
  3
Divide ____ . . ____ . . ____ . . ____ . . ____
 72
65
 73
6
 40
31.75
 49
12.699999999999999
 74
0
 49
-6.3499999999999996
 74
0
 49
0.0
 74
0
 49
-6.3499999999999996
 74
0
 49
0.0
 74
0
 49
-6.3499999999999996
 74
0
  0
LTYPE
  5
3B
100
AcDbSymbolTableRecord
100
AcDbLinetypeTableRecord
  2
DIVIDE2
 70
0
  3
Divide (.5x) __..__..__..__..__..__..__..__.._
 72
65
 73
6
 40
15.875
 49
6.3499999999999996
 74
0
 49
-3.1749999999999998
 74
0
 49
0.0
 74
0
 49
-3.1749999999999998
 74
0
 49
0.0
 74
0
 49
-3.1749999999999998
 74
0
  0
LTYPE
  5
3C
100
AcDbSymbolTableRecord
100
AcDbLinetypeTableRecord
  2
DIVIDEX2
 70
0
  3
Divide (2x) ________  .  .  ________  .  .  _
 72
65
 73
6
 40
63.5
 49
25.399999999999999
 74
0
 49
-12.699999999999999
 74
0
 49
0.0
 74
0
 49
-12.699999999999999
 74
0
 49
0.0
 74
0
 49
-12.699999999999999
 74
0
  0
LTYPE
  5
3D
100
AcDbSymbolTableRecord
100
AcDbLinetypeTableRecord
  2
CENTER
 70
0
  3
Center ____ _ ____ _ ____ _ ____ _ ____ _ ____
 72
65
 73
4
 40
50.799999999999997
 49
31.75
 74
0
 49
-6.3499999999999996
 74
0
 49
6.3499999999999996
 74
0
 49
-6.3499999999999996
 74
0
  0
LTYPE
  5
3E
100
AcDbSymbolTableRecord
100
AcDbLinetypeTableRecord
  2
CENTER2
 70
0
  3
Center (.5x) ___ _ ___ _ ___ _ ___ _ ___ _ ___
 72
65
 73
4
 40
28.574999999999999
 49
19.050000000000001
 74
0
 49
-3.1749999999999998
 74
0
 49
3.1749999999999998
 74
0
 49
-3.1749999999999998
 74
0
  0
LTYPE
  5
3F
100
AcDbSymbolTableRecord
100
AcDbLinetypeTableRecord
  2
CENTERX2
 70
0
  3
Center (2x) ________  __  ________  __  _____
 72
65
 73
4
 40
101.59999999999999
 49
63.5
 74
0
 49
-12.699999999999999
 74
0
 49
12.699999999999999
 74
0
 49
-12.699999999999999
 74
0
  0
LTYPE
  5
40
100
AcDbSymbolTableRecord
100
AcDbLinetypeTableRecord
  2
BORDER
 70
0
  3
Border __ __ . __ __ . __ __ . __ __ . __ __ .
 72
65
 73
6
 40
44.450000000000003
 49
12.699999999999999
 74
0
 49
-6.3499999999999996
 74
0
 49
12.699999999999999
 74
0
 49
-6.3499999999999996
 74
0
 49
0.0
 74
0
 49
-6.3499999999999996
 74
0
  0
LTYPE
  5
41
100
AcDbSymbolTableRecord
100
AcDbLinetypeTableRecord
  2
BORDER2
 70
0
  3
Border (.5x) __.__.__.__.__.__.__.__.__.__.__.
 72
65
 73
6
 40
22.225000000000001
 49
6.3499999999999996
 74
0
 49
-3.1749999999999998
 74
0
 49
6.3499999999999996
 74
0
 49
-3.1749999999999998
 74
0
 49
0.0
 74
0
 49
-3.1749999999999998
 74
0
  0
LTYPE
  5
42
100
AcDbSymbolTableRecord
100
AcDbLinetypeTableRecord
  2
BORDERX2
 70
0
  3
Border (2x) ____  ____  .  ____  ____  .  ___
 72
65
 73
6
 40
88.900000000000006
 49
25.399999999999999
 74
0
 49
-12.699999999999999
 74
0
 49
25.399999999999999
 74
0
 49
-12.699999999999999
 74
0
 49
0.0
 74
0
 49
-12.699999999999999
 74
0
  0
ENDTAB
  0
TABLE
  2
LAYER
  5
2
100
AcDbSymbolTable
 70
1
  0
LAYER
  5
10
100
AcDbSymbolTableRecord
100
AcDbLayerTableRecord
  2
0
 70
0
 62
7
  6
CONTINUOUS
390
F
  0
ENDTAB
  0
TABLE
  2
STYLE
  5
3
100
AcDbSymbolTable
 70
1
  0
STYLE
  5
11
100
AcDbSymbolTableRecord
100
AcDbTextStyleTableRecord
  2
Standard
 70
0
 40
0.0
 41
0.75
 50
0.0
 71
0
 42
2.5
  3
txt
  4

  0
ENDTAB
  0
TABLE
  2
VIEW
  5
6
100
AcDbSymbolTable
 70
0
  0
ENDTAB
  0
TABLE
  2
UCS
  5
7
100
AcDbSymbolTable
 70
0
  0
ENDTAB
  0
TABLE
  2
APPID
  5
9
100
AcDbSymbolTable
 70
1
  0
APPID
  5
12
100
AcDbSymbolTableRecord
100
AcDbRegAppTableRecord
  2
ACAD
 70
0
  0
ENDTAB
  0
TABLE
  2
DIMSTYLE
  5
A
100
AcDbSymbolTable
 70
1
100
AcDbDimStyleTable
 71
0
  0
DIMSTYLE
105
27
100
AcDbSymbolTableRecord
100
AcDbDimStyleTableRecord
  2
Standard
 41
6.0
 42
1.0
 43
3.75
 44
1.0
 70
0
 73
0
 74
0
 77
1
 78
8
140
3.5
141
2.5
143
0.03937007874016
147
1.524
171
3
172
1
271
2
272
2
274
3
278
44
283
0
284
8
340
11
  0
ENDTAB
  0
TABLE
  2
BLOCK_RECORD
  5
1
100
AcDbSymbolTable
 70
1
  0
BLOCK_RECORD
  5
1F
100
AcDbSymbolTableRecord
100
AcDbBlockTableRecord
  2
*Model_Space
340
22
  0
BLOCK_RECORD
  5
1B
100
AcDbSymbolTableRecord
100
AcDbBlockTableRecord
  2
*Paper_Space
340
1E
  0
BLOCK_RECORD
  5
23
100
AcDbSymbolTableRecord
100
AcDbBlockTableRecord
  2
*Paper_Space0
340
26
  0
ENDTAB
  0
ENDSEC
  0
SECTION
  2
BLOCKS
  0
BLOCK
  5
20
100
AcDbEntity
  8
0
100
AcDbBlockBegin
  2
*Model_Space
 70
0
 10
0.0
 20
0.0
 30
0.0
  3
*Model_Space
  1

  0
ENDBLK
  5
21
100
AcDbEntity
  8
0
100
AcDbBlockEnd
  0
BLOCK
  5
1C
100
AcDbEntity
 67
1
  8
0
100
AcDbBlockBegin
  2
*Paper_Space
 70
0
 10
0.0
 20
0.0
 30
0.0
  3
*Paper_Space
  1

  0
ENDBLK
  5
1D
100
AcDbEntity
 67
1
  8
0
100
AcDbBlockEnd
  0
BLOCK
  5
24
100
AcDbEntity
  8
0
100
AcDbBlockBegin
  2
*Paper_Space0
 70
0
 10
0.0
 20
0.0
 30
0.0
  3
*Paper_Space0
  1

  0
ENDBLK
  5
25
100
AcDbEntity
  8
0
100
AcDbBlockEnd
  0
ENDSEC
  0
SECTION
  2
ENTITIES
  0
CIRCLE
  5
43
100
AcDbEntity
100
AcDbCircle
  8
0
 62
7
370
-1
  6
CONTINUOUS
 10
235.15707532990001
 20
21.5288309974
 30
0.0
 40
6.0
  0
CIRCLE
  5
44
100
AcDbEntity
100
AcDbCircle
  8
0
 62
7
370
-1
  6
CONTINUOUS
 10
205.1258400703
 20
148.52636998450001
 30
0.0
 40
6.0
  0
CIRCLE
  5
45
100
AcDbEntity
100
AcDbCircle
  8
0
 62
7
370
-1
  6
CONTINUOUS
 10
222.19198711449999
 20
40.5263699845
 30
0.0
 40
3.999999999999972
  0
ARC
  5
46
100
AcDbEntity
  8
0
 62
7
370
-1
  6
CONTINUOUS
100
AcDbCircle
 10
159.67081194869999
 20
111.3797251315
 30
0.0
 40
51.951778475568503
100
AcDbArc
 50
79.012771444400002
 51
84.743584785600007
  0
LINE
  5
47
100
AcDbEntity
100
AcDbLine
  8
0
 62
7
370
-1
  6
CONTINUOUS
 10
161.85942129360001
 20
162.9611333558
 30
0.0
 11
164.4302762044
 21
163.11302955689999
 31
0.0
  0
ARC
  5
48
100
AcDbEntity
  8
0
 62
7
370
-1
  6
CONTINUOUS
100
AcDbCircle
 10
163.66040363600001
 20
137.02358407669999
 30
0.0
 40
26.000000000000082
100
AcDbArc
 50
93.971976334900006
 51
119.71951722239999
  0
ARC
  5
49
100
AcDbEntity
  8
0
 62
7
370
-1
  6
CONTINUOUS
100
AcDbCircle
 10
145.81324055100001
 20
168.28824095659999
 30
0.0
 40
9.999999999999984
100
AcDbArc
 50
260.77707595340001
 51
299.71951722239999
  0
LINE
  5
4A
100
AcDbEntity
100
AcDbLine
  8
0
 62
7
370
-1
  6
CONTINUOUS
 10
144.21047926910001
 20
158.41751878069999
 30
0.0
 11
100.47789985679999
 21
165.51860862929999
 31
0.0
  0
ARC
  5
4B
100
AcDbEntity
  8
0
 62
7
370
-1
  6
CONTINUOUS
100
AcDbCircle
 10
100.9587282414
 20
168.47982528209999
 30
0.0
 40
3.0000000000000169
100
AcDbArc
 50
189.18555612399999
 51
260.77707595340001
  0
ARC
  5
4C
100
AcDbEntity
  8
0
 62
7
370
-1
  6
CONTINUOUS
100
AcDbCircle
 10
91.580551124099998
 20
166.96331812540001
 30
0.0
 40
6.5000000000000169
100
AcDbArc
 50
9.1855561239999997
 51
152.36859578280001
  0
ARC
  5
4D
100
AcDbEntity
  8
0
 62
7
370
-1
  6
CONTINUOUS
100
AcDbCircle
 10
83.164030775900002
 20
171.36924427420001
 30
0.0
 40
2.9999999999999889
100
AcDbArc
 50
260.77707595340001
 51
332.36859578280001
  0
LINE
  5
4E
100
AcDbEntity
100
AcDbLine
  8
0
 62
7
370
-1
  6
CONTINUOUS
 10
82.683202391400002
 20
168.4080276215
 30
0.0
 11
65.029315807700002
 21
171.2745824072
 31
0.0
  0
ARC
  5
4F
100
AcDbEntity
  8
0
 62
7
370
-1
  6
CONTINUOUS
100
AcDbCircle
 10
65.990972576800004
 20
177.19701571280001
 30
0.0
 40
5.9999999999999858
100
AcDbArc
 50
216.3617674823
 51
260.77707595340001
  0
ARC
  5
50
100
AcDbEntity
  8
0
 62
7
370
-1
  6
CONTINUOUS
100
AcDbCircle
 10
71.627999748299999
 20
181.3471873453
 30
0.0
 40
12.99999999371286
100
AcDbArc
 50
80.777075953400001
 51
216.3617674823
  0
LINE
  5
51
100
AcDbEntity
100
AcDbLine
  8
0
 62
7
370
-1
  6
CONTINUOUS
 10
73.711589413799999
 20
194.17912616769999
 30
0.0
 11
111.2912022788
 21
188.07712598809999
 31
0.0
  0
ARC
  5
52
100
AcDbEntity
  8
0
 62
7
370
-1
  6
CONTINUOUS
100
AcDbCircle
 10
110.9706500225
 20
186.10298155289999
 30
0.0
 40
2.0
100
AcDbArc
 50
358.99028665520001
 51
80.777075953400001
  0
ARC
  5
53
100
AcDbEntity
  8
0
 62
7
370
-1
  6
CONTINUOUS
100
AcDbCircle
 10
117.969563077
 20
185.97962818139999
 30
0.0
 40
5.0000000000000444
100
AcDbArc
 50
178.99028665509999
 51
260.77707595340001
  0
LINE
  5
54
100
AcDbEntity
100
AcDbLine
  8
0
 62
7
370
-1
  6
CONTINUOUS
 10
117.1681824361
 20
181.0442670935
 30
0.0
 11
119.1423268712
 21
180.7237148371
 31
0.0
  0
ARC
  5
55
100
AcDbEntity
  8
0
 62
7
370
-1
  6
CONTINUOUS
100
AcDbCircle
 10
119.94370751220001
 20
185.65907592510001
 30
0.0
 40
4.9999999999999956
100
AcDbArc
 50
260.77707595340001
 51
342.56386525170001
  0
ARC
  5
56
100
AcDbEntity
  8
0
 62
7
370
-1
  6
CONTINUOUS
100
AcDbCircle
 10
126.6220683104
 20
183.56157811840001
 30
0.0
 40
2.0000000000000031
100
AcDbArc
 50
80.777075953400001
 51
162.56386525170001
  0
LINE
  5
57
100
AcDbEntity
100
AcDbLine
  8
0
 62
7
370
-1
  6
CONTINUOUS
 10
174.4834664224
 20
177.81626437310001
 30
0.0
 11
126.9426205668
 21
185.53572255360001
 31
0.0
  0
ARC
  5
58
100
AcDbEntity
  8
0
 62
7
370
-1
  6
CONTINUOUS
100
AcDbCircle
 10
153.84718551770001
 20
50.721603586800001
 30
0.0
 40
128.75911187157271
100
AcDbArc
 50
78.086111741300002
 51
80.777405504100003
  0
LINE
  5
59
100
AcDbEntity
100
AcDbLine
  8
0
 62
7
370
-1
  6
CONTINUOUS
 10
182.8955127481
 20
176.2201510987
 30
0.0
 11
180.4283924376
 21
176.70711199409999
 31
0.0
  0
ARC
  5
5A
100
AcDbEntity
  8
0
 62
7
370
-1
  6
CONTINUOUS
100
AcDbCircle
 10
167.2686762406
 20
113.713091659
 30
0.0
 40
64.43081948126725
100
AcDbArc
 50
42.601502045499998
 51
75.963694720999996
  0
ARC
  5
5B
100
AcDbEntity
  8
0
 62
7
370
-1
  6
CONTINUOUS
100
AcDbCircle
 10
130.25682625760001
 20
79.677160161499998
 30
0.0
 40
114.71323859640179
100
AcDbArc
 50
3.0
 51
42.601502045499998
  0
ARC
  5
5C
100
AcDbEntity
  8
0
 62
7
370
-1
  6
CONTINUOUS
100
AcDbCircle
 10
241.816965743
 20
85.523779328399996
 30
0.0
 40
2.9999999999999889
100
AcDbArc
 50
288.0154620289
 51
3.0
  0
ARC
  5
5D
100
AcDbEntity
  8
0
 62
7
370
-1
  6
CONTINUOUS
100
AcDbCircle
 10
248.15707532990001
 20
66.028830997399993
 30
0.0
 40
17.500000000000011
100
AcDbArc
 50
108.0154620289
 51
257.9845379711
  0
ARC
  5
5E
100
AcDbEntity
  8
0
 62
7
370
-1
  6
CONTINUOUS
100
AcDbCircle
 10
243.8894745172
 20
45.977956121200002
 30
0.0
 40
2.9999999999999898
100
AcDbArc
 50
3.0
 51
77.984537971099996
  0
LINE
  5
5F
100
AcDbEntity
100
AcDbLine
  8
0
 62
7
370
-1
  6
CONTINUOUS
 10
248.13925936199999
 20
22.209198432800001
 30
0.0
 11
246.88536312150001
 21
46.134963989900001
 31
0.0
  0
LINE
  5
60
100
AcDbEntity
100
AcDbLine
  8
0
 62
7
370
-1
  6
CONTINUOUS
 10
247.25700146809999
 20
16.775748887900001
 30
0.0
 11
248.13925936199999
 21
22.209198432800001
 31
0.0
  0
ARC
  5
61
100
AcDbEntity
  8
0
 62
7
370
-1
  6
CONTINUOUS
100
AcDbCircle
 10
235.15707532990001
 20
21.5288309974
 30
0.0
 40
13.00000008042808
100
AcDbArc
 50
213.69602412090001
 51
338.55415190679997
  0
LINE
  5
62
100
AcDbEntity
100
AcDbLine
  8
0
 62
7
370
-1
  6
CONTINUOUS
 10
215.1277515184
 20
28.133620887399999
 30
0.0
 11
224.34117117709999
 21
14.3166039178
 31
0.0
  0
ARC
  5
63
100
AcDbEntity
  8
0
 62
7
370
-1
  6
CONTINUOUS
100
AcDbCircle
 10
212.6317736524
 20
26.469260802400001
 30
0.0
 40
3.0000000000000151
100
AcDbArc
 50
33.696024120899999
 51
55.780453954199999
  0
ARC
  5
64
100
AcDbEntity
  8
0
 62
7
370
-1
  6
CONTINUOUS
100
AcDbCircle
 10
222.19198711449999
 20
40.5263699845
 30
0.0
 40
14.00000000000002
100
AcDbArc
 50
129.509808308
 51
235.78045395420003
  0
ARC
  5
65
100
AcDbEntity
  8
0
 62
7
370
-1
  6
CONTINUOUS
100
AcDbCircle
 10
211.376411959
 20
53.642136605600001
 30
0.0
 40
3.000000000000028
100
AcDbArc
 50
309.509808308
 51
0.0
  0
LINE
  5
66
100
AcDbEntity
100
AcDbLine
  8
0
 62
7
370
-1
  6
CONTINUOUS
 10
214.376411959
 20
91.458814687100002
 30
0.0
 11
214.376411959
 21
53.642136605600001
 31
0.0
  0
ARC
  5
67
100
AcDbEntity
  8
0
 62
7
370
-1
  6
CONTINUOUS
100
AcDbCircle
 10
143.0686051827
 20
91.458814687100002
 30
0.0
 40
71.307806776374179
100
AcDbArc
 50
360.0
 51
23.893585326099998
  0
ARC
  5
68
100
AcDbEntity
  8
0
 62
7
370
-1
  6
CONTINUOUS
100
AcDbCircle
 10
211.00818149829999
 20
121.5563912999
 30
0.0
 40
3.0000000000000071
100
AcDbArc
 50
153.15438740690001
 51
203.89358532610001
  0
ARC
  5
69
100
AcDbEntity
  8
0
 62
7
370
-1
  6
CONTINUOUS
100
AcDbCircle
 10
201.63980223429999
 20
126.2980650513
 30
0.0
 40
7.5000000000000364
100
AcDbArc
 50
333.15438740690001
 51
83.799113735199995
  0
ARC
  5
6A
100
AcDbEntity
  8
0
 62
7
370
-1
  6
CONTINUOUS
100
AcDbCircle
 10
202.881971669
 20
137.73078192419999
 30
0.0
 40
4.0000000000000204
100
AcDbArc
 50
166.30439628120001
 51
263.79911373520002
  0
LINE
  5
6B
100
AcDbEntity
100
AcDbLine
  8
0
 62
7
370
-1
  6
CONTINUOUS
 10
198.9957025105
 20
138.6778363194
 30
0.0
 11
199.09501085740001
 21
139.0853514186
 31
0.0
  0
ARC
  5
6C
100
AcDbEntity
  8
0
 62
7
370
-1
  6
CONTINUOUS
100
AcDbCircle
 10
197.15187627820001
 20
139.55887861619999
 30
0.0
 40
2.0000000000000449
100
AcDbArc
 50
346.30439628120001
 51
76.304396281199999
  0
LINE
  5
6D
100
AcDbEntity
100
AcDbLine
  8
0
 62
7
370
-1
  6
CONTINUOUS
 10
197.6254034758
 20
141.50201319550001
 30
0.0
 11
194.5401101484
 21
142.2538758398
 31
0.0
  0
ARC
  5
6E
100
AcDbEntity
  8
0
 62
7
370
-1
  6
CONTINUOUS
100
AcDbCircle
 10
195.013637346
 20
144.1970104191
 30
0.0
 40
2.0000000000000449
100
AcDbArc
 50
203.17732608809999
 51
256.30439628120001
  0
ARC
  5
6F
100
AcDbEntity
  8
0
 62
7
370
-1
  6
CONTINUOUS
100
AcDbCircle
 10
205.1258400703
 20
148.52636998450001
 30
0.0
 40
12.99999991747544
100
AcDbArc
 50
198.26350226689999
 51
203.17732608809999
  0
ARC
  5
70
100
AcDbEntity
  8
0
 62
7
370
-1
  6
CONTINUOUS
100
AcDbCircle
 10
168.0904534503
 20
136.30425349550001
 30
0.0
 40
26.0
100
AcDbArc
 50
18.263502266900002
 51
62.3556567746
  0
LINE
  5
71
100
AcDbEntity
100
AcDbLine
  8
0
 62
7
370
-1
  6
CONTINUOUS
 10
177.81443725029999
 20
160.60887844889999
 30
0.0
 11
180.15397922380001
 21
159.33621706610001
 31
0.0
  0
ARC
  5
72
100
AcDbEntity
  8
0
 62
7
370
-1
  6
CONTINUOUS
100
AcDbCircle
 10
162.8562367177
 20
111.03966434749999
 30
0.0
 40
51.776971230515159
100
AcDbArc
 50
73.208080314
 51
82.547072471299998
  0
CIRCLE
  5
73
100
AcDbEntity
100
AcDbCircle
  8
0
 62
7
370
-1
  6
CONTINUOUS
 10
134.75148603930003
 20
169.76910303179994
 30
0.0
 40
4.0
  0
CIRCLE
  5
74
100
AcDbEntity
100
AcDbCircle
  8
0
 62
7
370
-1
  6
CONTINUOUS
 10
71.627999748299999
 20
181.3471873453
 30
0.0
 40
6.0000000000000142
  0
ENDSEC
  0
SECTION
  2
OBJECTS
  0
DICTIONARY
  5
C
100
AcDbDictionary
280
0
281
1
  3
ACAD_GROUP
350
D
  3
ACAD_LAYOUT
350
1A
  3
ACAD_MLINESTYLE
350
17
  3
ACAD_PLOTSETTINGS
350
19
  3
ACAD_PLOTSTYLENAME
350
E
  3
AcDbVariableDictionary
350
75
  0
DICTIONARY
  5
D
100
AcDbDictionary
280
0
281
1
  0
ACDBDICTIONARYWDFLT
  5
E
100
AcDbDictionary
281
1
  3
Normal
350
F
100
AcDbDictionaryWithDefault
340
F
  0
ACDBPLACEHOLDER
  5
F
  0
DICTIONARY
  5
17
100
AcDbDictionary
280
0
281
1
  3
Standard
350
18
  0
MLINESTYLE
  5
18
100
AcDbMlineStyle
  2
STANDARD
 70
0
  3

 62
256
 51
90.0
 52
90.0
 71
2
 49
0.5
 62
256
  6
BYLAYER
 49
-0.5
 62
256
  6
BYLAYER
  0
DICTIONARY
  5
19
100
AcDbDictionary
280
0
281
1
  0
DICTIONARY
  5
1A
100
AcDbDictionary
281
1
  3
Layout1
350
1E
  3
Layout2
350
26
  3
Model
350
22
  0
LAYOUT
  5
1E
100
AcDbPlotSettings
  1

  2
C:\Program Files\AutoCAD 2002\plotters\DWF ePlot (optimized for plotting).pc3
  4

  6

 40
0.0
 41
0.0
 42
0.0
 43
0.0
 44
0.0
 45
0.0
 46
0.0
 47
0.0
 48
0.0
 49
0.0
140
0.0
141
0.0
142
1.0
143
1.0
 70
688
 72
0
 73
0
 74
5
  7

 75
16
147
1.0
148
0.0
149
0.0
100
AcDbLayout
  1
Layout1
 70
1
 71
1
 10
0.0
 20
0.0
 11
420.0
 21
297.0
 12
0.0
 22
0.0
 32
0.0
 14
100000000000000000000.0
 24
100000000000000000000.0
 34
100000000000000000000.0
 15
-100000000000000000000.0
 25
-100000000000000000000.0
 35
-100000000000000000000.0
146
0.0
 13
0.0
 23
0.0
 33
0.0
 16
1.0
 26
0.0
 36
0.0
 17
0.0
 27
1.0
 37
0.0
 76
0
330
1B
  0
LAYOUT
  5
22
100
AcDbPlotSettings
  1

  2
C:\Program Files\AutoCAD 2002\plotters\DWF ePlot (optimized for plotting).pc3
  4

  6

 40
0.0
 41
0.0
 42
0.0
 43
0.0
 44
0.0
 45
0.0
 46
0.0
 47
0.0
 48
0.0
 49
0.0
140
0.0
141
0.0
142
1.0
143
1.0
 70
1712
 72
0
 73
0
 74
0
  7

 75
0
147
1.0
148
0.0
149
0.0
100
AcDbLayout
  1
Model
 70
1
 71
0
 10
0.0
 20
0.0
 11
12.0
 21
9.0
 12
0.0
 22
0.0
 32
0.0
 14
0.0
 24
0.0
 34
0.0
 15
0.0
 25
0.0
 35
0.0
146
0.0
 13
0.0
 23
0.0
 33
0.0
 16
1.0
 26
0.0
 36
0.0
 17
0.0
 27
1.0
 37
0.0
 76
0
330
1F
  0
LAYOUT
  5
26
100
AcDbPlotSettings
  1

  2
C:\Program Files\AutoCAD 2002\plotters\DWF ePlot (optimized for plotting).pc3
  4

  6

 40
0.0
 41
0.0
 42
0.0
 43
0.0
 44
0.0
 45
0.0
 46
0.0
 47
0.0
 48
0.0
 49
0.0
140
0.0
141
0.0
142
1.0
143
1.0
 70
688
 72
0
 73
0
 74
5
  7

 75
16
147
1.0
148
0.0
149
0.0
100
AcDbLayout
  1
Layout2
 70
1
 71
2
 10
0.0
 20
0.0
 11
12.0
 21
9.0
 12
0.0
 22
0.0
 32
0.0
 14
0.0
 24
0.0
 34
0.0
 15
0.0
 25
0.0
 35
0.0
146
0.0
 13
0.0
 23
0.0
 33
0.0
 16
1.0
 26
0.0
 36
0.0
 17
0.0
 27
1.0
 37
0.0
 76
0
330
23
  0
DICTIONARY
  5
75
100
AcDbDictionary
281
1
  3
DIMASSOC
350
77
  3
HIDETEXT
350
76
  0
DICTIONARYVAR
  5
76
100
DictionaryVariables
280
0
  1
2
  0
DICTIONARYVAR
  5
77
100
DictionaryVariables
280
0
  1
1
  0
ENDSEC
  0
EOF
